P3
20 20 
255 
18 12 60    18 12 60    18 12 60    18 12 60    18 12 60    18 12 60    18 12 60    18 12 60    18 12 60    18 12 60    18 12 60    18 12 60    18 12 60    18 12 60    18 12 60    18 12 60    18 12 60    18 12 60    18 12 60    18 12 60    
18 12 60    18 12 60    255 80 80    18 12 60    18 12 60    18 12 60    18 12 60    18 12 60    18 12 60    18 12 60    18 12 60    18 12 60    18 12 60    18 12 60    18 12 60    18 12 60    18 12 60    18 12 60    18 12 60    18 12 60    
18 12 60    18 12 60    255 255 255    18 12 60    18 12 60    18 12 60    18 12 60    18 12 60    18 12 60    255 255 255    18 12 60    18 12 60    18 12 60    18 12 60    18 12 60    18 12 60    18 12 60    18 12 60    18 12 60    18 12 60    
18 12 60    18 12 60    18 12 60    18 12 60    18 12 60    18 12 60    18 12 60    255 255 255    18 12 60    18 12 60    18 12 60    18 12 60    18 12 60    18 12 60    18 12 60    18 12 60    18 12 60    18 12 60    18 12 60    18 12 60    
18 12 60    18 12 60    18 12 60    18 12 60    18 12 60    18 12 60    18 12 60    18 12 60    18 12 60    18 12 60    18 12 60    18 12 60    18 12 60    18 12 60    18 12 60    255 0 0    18 12 60    18 12 60    18 12 60    18 12 60    
18 12 60    18 12 60    18 12 60    18 12 60    18 12 60    18 12 60    18 12 60    18 12 60    18 12 60    18 12 60    18 12 60    18 12 60    18 12 60    18 12 60    18 12 60    18 12 60    18 12 60    18 12 60    18 12 60    18 12 60    
255 255 99    18 12 60    18 12 60    18 12 60    18 12 60    18 12 60    18 12 60    18 12 60    18 12 60    18 12 60    18 12 60    18 12 60    255 255 99    18 12 60    18 12 60    18 12 60    18 12 60    255 80 80    18 12 60    18 12 60    
18 12 60    18 12 60    18 12 60    18 12 60    18 12 60    18 12 60    18 12 60    18 12 60    18 12 60    18 12 60    255 255 99    18 12 60    18 12 60    255 255 255    18 12 60    18 12 60    18 12 60    18 12 60    18 12 60    18 12 60    
18 12 60    18 12 60    18 12 60    18 12 60    18 12 60    18 12 60    18 12 60    18 12 60    18 12 60    18 12 60    18 12 60    18 12 60    18 12 60    18 12 60    18 12 60    18 12 60    18 12 60    18 12 60    18 12 60    18 12 60    
18 12 60    18 12 60    255 255 255    18 12 60    18 12 60    18 12 60    18 12 60    18 12 60    18 12 60    18 12 60    18 12 60    18 12 60    18 12 60    18 12 60    18 12 60    18 12 60    18 12 60    18 12 60    18 12 60    18 12 60    
18 12 60    18 12 60    18 12 60    18 12 60    18 12 60    18 12 60    18 12 60    18 12 60    18 12 60    18 12 60    18 12 60    18 12 60    18 12 60    18 12 60    18 12 60    18 12 60    18 12 60    18 12 60    18 12 60    18 12 60    
18 12 60    18 12 60    18 12 60    18 12 60    18 12 60    18 12 60    18 12 60    18 12 60    18 12 60    18 12 60    18 12 60    18 12 60    18 12 60    18 12 60    18 12 60    18 12 60    18 12 60    18 12 60    18 12 60    18 12 60    
18 12 60    18 12 60    18 12 60    18 12 60    18 12 60    18 12 60    18 12 60    18 12 60    18 12 60    255 80 80    18 12 60    18 12 60    18 12 60    18 12 60    18 12 60    18 12 60    18 12 60    18 12 60    18 12 60    18 12 60    
18 12 60    18 12 60    18 12 60    18 12 60    18 12 60    18 12 60    18 12 60    18 12 60    18 12 60    18 12 60    18 12 60    18 12 60    18 12 60    18 12 60    18 12 60    18 12 60    18 12 60    18 12 60    18 12 60    18 12 60    
18 12 60    18 12 60    18 12 60    18 12 60    18 12 60    18 12 60    18 12 60    18 12 60    18 12 60    18 12 60    18 12 60    18 12 60    18 12 60    18 12 60    18 12 60    18 12 60    18 12 60    18 12 60    18 12 60    18 12 60    
18 12 60    18 12 60    18 12 60    18 12 60    18 12 60    18 12 60    255 80 80    18 12 60    18 12 60    18 12 60    18 12 60    18 12 60    18 12 60    255 80 80    18 12 60    18 12 60    18 12 60    18 12 60    18 12 60    18 12 60    
18 12 60    18 12 60    18 12 60    18 12 60    18 12 60    18 12 60    18 12 60    18 12 60    18 12 60    18 12 60    18 12 60    255 255 99    18 12 60    18 12 60    18 12 60    18 12 60    18 12 60    18 12 60    18 12 60    18 12 60    
18 12 60    18 12 60    18 12 60    18 12 60    18 12 60    18 12 60    18 12 60    18 12 60    18 12 60    18 12 60    18 12 60    18 12 60    18 12 60    18 12 60    18 12 60    18 12 60    18 12 60    18 12 60    18 12 60    18 12 60    
18 12 60    18 12 60    18 12 60    18 12 60    18 12 60    18 12 60    18 12 60    18 12 60    18 12 60    18 12 60    18 12 60    18 12 60    18 12 60    18 12 60    18 12 60    18 12 60    18 12 60    18 12 60    18 12 60    18 12 60    
18 12 60    18 12 60    18 12 60    255 255 99    255 0 0    18 12 60    18 12 60    18 12 60    18 12 60    18 12 60    18 12 60    18 12 60    18 12 60    18 12 60    18 12 60    18 12 60    18 12 60    18 12 60    18 12 60    18 12 60    
