P3
20 20 
255 
254 100 71    254 100 71    254 100 71    254 100 71    254 100 71    254 100 71    254 100 71    254 100 71    254 100 71    254 100 71    254 100 71    254 100 71    254 100 71    254 100 71    254 100 71    254 100 71    254 100 71    254 100 71    254 100 71    254 100 71    
254 100 71    254 100 71    254 100 71    254 100 71    254 100 71    254 100 71    254 100 71    254 100 71    254 100 71    254 100 71    254 100 71    254 100 71    254 100 71    254 100 71    254 100 71    254 100 71    254 100 71    254 100 71    254 100 71    254 100 71    
254 100 71    254 100 71    254 100 71    254 100 71    254 100 71    254 100 71    254 100 71    254 100 71    254 100 71    254 100 71    254 100 71    254 100 71    254 100 71    254 100 71    254 100 71    254 100 71    254 100 71    254 100 71    254 100 71    254 100 71    
254 100 71    254 100 71    254 100 71    254 100 71    254 100 71    254 100 71    254 100 71    254 100 71    254 100 71    254 100 71    254 100 71    254 100 71    254 100 71    254 100 71    254 100 71    254 100 71    254 100 71    254 100 71    254 100 71    254 100 71    
254 100 71    254 100 71    254 100 71    254 100 71    254 100 71    254 100 71    254 100 71    254 100 71    254 100 71    254 100 71    254 100 71    254 100 71    254 100 71    254 100 71    254 100 71    254 100 71    254 100 71    254 100 71    254 100 71    254 100 71    
254 100 71    254 100 71    254 100 71    254 100 71    254 100 71    254 100 71    254 100 71    254 100 71    254 100 71    254 100 71    254 100 71    254 100 71    254 100 71    254 100 71    254 100 71    254 100 71    254 100 71    254 100 71    254 100 71    254 100 71    
254 100 71    254 100 71    254 100 71    254 100 71    254 100 71    254 100 71    254 100 71    254 100 71    254 100 71    254 100 71    254 100 71    254 100 71    254 100 71    254 100 71    254 100 71    254 100 71    254 100 71    254 100 71    254 100 71    254 100 71    
254 100 71    254 100 71    254 100 71    254 100 71    254 100 71    254 100 71    254 100 71    254 100 71    254 100 71    254 100 71    254 100 71    254 100 71    254 100 71    254 100 71    254 100 71    254 100 71    254 100 71    254 100 71    254 100 71    254 100 71    
254 100 71    254 100 71    254 100 71    254 100 71    254 100 71    254 100 71    254 100 71    254 100 71    254 100 71    254 100 71    254 100 71    254 100 71    254 100 71    254 100 71    254 100 71    254 100 71    254 100 71    254 100 71    254 100 71    254 100 71    
254 100 71    254 100 71    254 100 71    254 100 71    254 100 71    254 100 71    254 100 71    254 100 71    254 100 71    254 195 71    254 195 71    254 195 71    254 190 71    254 185 71    254 180 71    254 175 71    254 170 71    254 165 71    254 160 71    254 155 71    
254 100 71    254 100 71    254 100 71    254 100 71    254 100 71    254 100 71    254 100 71    254 100 71    254 190 71    254 195 71    254 231 71    254 195 71    254 190 71    254 185 71    254 180 71    254 175 71    254 170 71    254 165 71    254 160 71    254 155 71    
254 100 71    254 100 71    254 100 71    254 100 71    254 100 71    254 100 71    254 100 71    254 185 71    254 190 71    254 195 71    254 195 71    254 195 71    254 190 71    254 185 71    254 180 71    254 175 71    254 170 71    254 165 71    254 160 71    254 155 71    
254 100 71    254 100 71    254 100 71    254 100 71    254 100 71    254 100 71    254 180 71    254 185 71    254 190 71    254 190 71    254 190 71    254 190 71    254 190 71    254 185 71    254 180 71    254 175 71    254 170 71    254 165 71    254 160 71    254 155 71    
254 100 71    254 100 71    254 100 71    254 100 71    254 100 71    254 175 71    254 180 71    254 185 71    254 185 71    254 185 71    254 185 71    254 185 71    254 185 71    254 185 71    254 180 71    254 175 71    254 170 71    254 165 71    254 160 71    254 155 71    
254 100 71    254 100 71    254 100 71    254 100 71    254 170 71    254 175 71    254 180 71    254 180 71    254 180 71    254 180 71    254 180 71    254 180 71    254 180 71    254 180 71    254 180 71    254 175 71    254 170 71    254 165 71    254 160 71    254 155 71    
254 100 71    254 100 71    254 100 71    254 165 71    254 170 71    254 175 71    254 175 71    254 175 71    254 175 71    254 175 71    254 175 71    254 175 71    254 175 71    254 175 71    254 175 71    254 175 71    254 170 71    254 165 71    254 160 71    254 155 71    
254 100 71    254 100 71    254 160 71    254 165 71    254 170 71    254 170 71    254 170 71    254 170 71    254 170 71    254 170 71    254 170 71    254 170 71    254 170 71    254 170 71    254 170 71    254 170 71    254 170 71    254 165 71    254 160 71    254 155 71    
254 100 71    254 155 71    254 160 71    254 165 71    254 165 71    254 165 71    254 165 71    254 165 71    254 165 71    254 165 71    254 165 71    254 165 71    254 165 71    254 165 71    254 165 71    254 165 71    254 165 71    254 165 71    254 160 71    254 155 71    
254 150 71    254 155 71    254 160 71    254 160 71    254 160 71    254 160 71    254 160 71    254 160 71    254 160 71    254 160 71    254 160 71    254 160 71    254 160 71    254 160 71    254 160 71    254 160 71    254 160 71    254 160 71    254 160 71    254 155 71    
254 150 71    254 155 71    254 155 71    254 155 71    254 155 71    254 155 71    254 155 71    254 155 71    254 155 71    254 155 71    254 155 71    254 155 71    254 155 71    254 155 71    254 155 71    254 155 71    254 155 71    254 155 71    254 155 71    254 155 71    
