P3
20 20 
255 
18 12 60    18 12 60    18 12 60    18 12 60    18 12 60    18 12 60    18 12 60    18 12 60    18 12 60    18 12 60    18 12 60    18 12 60    18 12 60    18 12 60    18 12 60    18 12 60    18 12 60    18 12 60    18 12 60    18 12 60    
18 12 60    18 12 60    18 12 60    18 12 60    18 12 60    18 12 60    18 12 60    18 12 60    18 12 60    18 12 60    18 12 60    18 12 60    18 12 60    18 12 60    18 12 60    18 12 60    18 12 60    18 12 60    18 12 60    18 12 60    
18 12 60    18 12 60    254 200 71    254 200 71    254 200 71    254 200 71    254 200 71    254 200 71    254 200 71    254 200 71    254 200 71    254 200 71    254 200 71    254 200 71    254 200 71    254 200 71    254 200 71    254 200 71    254 200 71    254 200 71    
18 12 60    254 200 71    254 200 71    254 231 71    254 200 71    254 200 71    254 200 71    254 200 71    254 200 71    254 200 71    254 200 71    254 200 71    254 200 71    254 200 71    254 200 71    254 200 71    254 200 71    254 200 71    254 200 71    254 200 71    
254 200 71    254 200 71    254 200 71    254 200 71    254 200 71    254 200 71    254 200 71    254 200 71    254 200 71    254 200 71    254 200 71    254 200 71    254 200 71    254 200 71    254 200 71    254 200 71    254 200 71    254 200 71    254 200 71    254 200 71    
254 200 71    254 200 71    254 200 71    254 200 71    254 200 71    254 200 71    254 200 71    254 200 71    254 200 71    254 200 71    254 200 71    254 200 71    254 200 71    254 200 71    254 200 71    254 200 71    254 200 71    254 200 71    254 200 71    254 200 71    
254 200 71    254 200 71    254 200 71    254 200 71    254 200 71    254 200 71    254 200 71    254 200 71    254 200 71    254 200 71    254 200 71    254 200 71    254 200 71    254 200 71    254 200 71    254 200 71    254 200 71    254 200 71    254 200 71    254 200 71    
254 200 71    254 200 71    254 200 71    254 200 71    254 200 71    254 200 71    254 200 71    254 200 71    254 200 71    254 200 71    254 200 71    254 200 71    254 200 71    254 200 71    254 200 71    254 200 71    254 200 71    254 200 71    254 200 71    254 200 71    
254 200 71    254 200 71    254 200 71    254 200 71    254 200 71    254 200 71    254 200 71    254 200 71    254 200 71    254 200 71    254 200 71    254 200 71    254 200 71    254 200 71    254 200 71    254 200 71    254 200 71    254 200 71    254 200 71    254 200 71    
254 200 71    254 200 71    254 200 71    254 200 71    254 200 71    254 200 71    254 200 71    254 200 71    254 200 71    254 200 71    254 200 71    254 200 71    254 200 71    254 200 71    254 200 71    254 200 71    254 200 71    254 200 71    254 200 71    254 200 71    
254 200 71    254 200 71    254 200 71    254 200 71    254 200 71    254 200 71    254 200 71    254 200 71    254 200 71    254 200 71    254 200 71    254 200 71    254 200 71    254 200 71    254 200 71    254 200 71    254 200 71    254 200 71    254 200 71    254 200 71    
254 200 71    254 200 71    254 200 71    254 200 71    254 200 71    254 200 71    254 200 71    254 200 71    254 200 71    254 200 71    254 200 71    254 200 71    254 200 71    254 200 71    254 200 71    254 200 71    254 200 71    254 200 71    254 200 71    254 200 71    
254 200 71    254 200 71    254 200 71    254 200 71    254 200 71    254 200 71    254 200 71    254 200 71    254 200 71    254 200 71    254 200 71    254 200 71    254 200 71    254 200 71    254 200 71    254 200 71    254 200 71    254 200 71    254 200 71    254 200 71    
254 200 71    254 200 71    254 200 71    254 200 71    254 200 71    254 200 71    254 200 71    254 200 71    254 200 71    254 200 71    254 200 71    254 200 71    254 200 71    254 200 71    254 200 71    254 200 71    254 200 71    254 200 71    254 200 71    254 200 71    
254 200 71    254 200 71    254 200 71    254 200 71    254 200 71    254 200 71    254 200 71    254 200 71    254 200 71    254 200 71    254 200 71    254 200 71    254 200 71    254 200 71    254 200 71    254 200 71    254 200 71    254 200 71    254 200 71    254 200 71    
254 200 71    254 200 71    254 200 71    254 200 71    254 200 71    254 200 71    254 200 71    254 200 71    254 200 71    254 200 71    254 200 71    254 200 71    254 200 71    254 200 71    254 200 71    254 200 71    254 200 71    254 200 71    254 200 71    254 200 71    
254 200 71    254 200 71    254 200 71    254 200 71    254 200 71    254 200 71    254 200 71    254 200 71    254 200 71    254 200 71    254 200 71    254 200 71    254 200 71    254 200 71    254 200 71    254 200 71    254 200 71    254 200 71    254 200 71    254 200 71    
254 200 71    254 200 71    254 200 71    254 200 71    254 200 71    254 200 71    254 200 71    254 200 71    254 200 71    254 200 71    254 200 71    254 200 71    254 200 71    254 200 71    254 200 71    254 200 71    254 200 71    254 200 71    254 200 71    254 200 71    
254 200 71    254 200 71    254 200 71    254 200 71    254 200 71    254 200 71    254 200 71    254 200 71    254 200 71    254 200 71    254 200 71    254 200 71    254 200 71    254 200 71    254 200 71    254 200 71    254 200 71    254 200 71    254 200 71    254 200 71    
254 200 71    254 200 71    254 200 71    254 200 71    254 200 71    254 200 71    254 200 71    254 200 71    254 200 71    254 200 71    254 200 71    254 200 71    254 200 71    254 200 71    254 200 71    254 200 71    254 200 71    254 200 71    254 200 71    254 200 71    
